# xmcd CD database file
#
# Track frame offsets:
#	150
#	10132
#	24431
#	35241
#	48059
#	59444
#	75718
#	85243
#	105276
#	118841
#	133139
#
# Disc length: 1924 seconds
#
# Revision: 0
# Processed by: cddbd v1.5.2PL0 Copyright (c) Steve Scherf et al.
# Submitted via: CDex 1.70beta2
#
DISCID=8707820b
DTITLE=Smith, Joyce - Cdn. - AB - Thje Same Old Me
DYEAR=2002
DGENRE=Country
TTITLE0=Please Play It Softly
TTITLE1=My Little World Gone Bad
TTITLE2=Wasted Years
TTITLE3=Leavin' On Your Mind
TTITLE4=Crazy Heart
TTITLE5=The Same Old Me
TTITLE6=Love Up and Let Me Down
TTITLE7=One Day At A Time
TTITLE8=Rodeo Wind
TTITLE9=I Fall To Peices
TTITLE10=He's My Friend
EXTD=YEAR: 2002
EXTT0=
EXTT1=
EXTT2=
EXTT3=
EXTT4=
EXTT5=
EXTT6=
EXTT7=
EXTT8=
EXTT9=
EXTT10=
PLAYORDER=
